<?xml version="1.0" standalone="no"?>
<!DOCTYPE svg PUBLIC "-//W3C//DTD SVG 20010904//EN"
 "http://www.w3.org/TR/2001/REC-SVG-20010904/DTD/svg10.dtd">
<svg version="1.0" xmlns="http://www.w3.org/2000/svg"
 width="512.000000pt" height="512.000000pt" viewBox="0 0 512.000000 512.000000"
 preserveAspectRatio="xMidYMid meet">

<g transform="translate(0.000000,512.000000) scale(0.100000,-0.100000)"
fill="#000000" stroke="none">
<path d="M2380 5114 c-19 -2 -78 -9 -130 -15 -435 -49 -867 -224 -1239 -502
-124 -93 -396 -365 -490 -490 -270 -362 -431 -750 -497 -1202 -27 -180 -25
-533 4 -720 114 -730 515 -1358 1129 -1766 151 -100 417 -228 598 -288 155
-51 330 -91 495 -113 123 -16 497 -16 620 0 291 39 554 118 815 246 270 133
463 270 673 479 398 393 647 883 734 1442 29 187 31 540 4 720 -66 451 -230
847 -499 1204 -90 119 -282 318 -407 423 -361 302 -831 506 -1310 568 -87 12
-438 21 -500 14z m525 -138 c55 -9 144 -25 197 -37 l98 -22 -78 -44 c-42 -24
-118 -77 -169 -117 l-91 -74 -209 0 c-377 1 -684 -69 -1022 -233 l-144 -69
-189 62 c-103 34 -187 67 -185 72 9 26 210 155 352 226 254 127 568 220 845
249 122 14 476 6 595 -13z m260 -766 c168 -168 305 -308 305 -313 0 -9 -419
-1156 -430 -1176 -6 -10 -163 -45 -516 -113 -280 -54 -516 -98 -525 -98 -9 0
-211 200 -448 445 l-432 446 7 37 c36 200 141 448 276 651 46 69 63 86 128
125 192 116 471 224 680 266 181 35 220 38 437 37 l213 -2 305 -305z m1027
163 c299 -263 551 -645 677 -1022 17 -52 31 -97 31 -100 0 -3 -21 30 -46 73
-105 185 -290 411 -447 547 l-81 70 -26 88 c-43 146 -139 322 -231 429 -64 72
-27 47 123 -85z m-193 -559 l244 -15 68 -60 c226 -200 427 -489 534 -767 29
-73 29 -74 16 -175 -28 -227 -94 -494 -166 -671 -53 -133 -117 -246 -140 -251
-11 -2 -202 -20 -425 -40 -223 -19 -417 -37 -432 -40 -26 -4 -35 10 -267 417
-133 231 -241 425 -241 432 0 6 97 278 217 604 l217 594 65 -6 c36 -4 176 -13
310 -22z m-3665 -487 c-1 -226 -1 -234 -28 -307 -76 -212 -116 -454 -116 -715
l-1 -180 -23 45 c-29 56 -46 199 -46 384 0 346 68 674 207 994 3 6 6 12 7 12
0 0 1 -105 0 -233z m1011 -392 c180 -187 371 -383 423 -436 l95 -97 -42 -458
c-23 -253 -44 -470 -47 -484 -4 -24 -31 -34 -420 -164 l-415 -138 -47 38
c-127 103 -295 282 -414 444 -50 68 -57 85 -77 175 -81 373 -67 752 40 1096
l30 97 72 49 c40 27 104 67 142 88 78 42 304 136 320 132 6 -1 159 -155 340
-342z m3242 -1462 l21 -238 -26 -40 c-156 -246 -460 -544 -652 -640 -151 -75
-443 -147 -747 -183 l-72 -8 -66 273 c-37 150 -65 277 -63 282 3 9 340 363
562 589 l120 122 405 39 c223 21 427 39 452 40 l45 1 21 -237z m-2250 -390
c263 -113 480 -207 481 -209 6 -4 132 -527 132 -545 0 -48 -281 -121 -570
-148 -245 -22 -263 -23 -340 -6 -205 45 -477 147 -653 246 -115 64 -270 167
-319 211 l-38 33 -11 168 c-6 93 -8 172 -4 175 7 8 813 280 832 281 7 1 227
-92 490 -206z"/>
</g>
</svg>
